<svg width="119" height="113" viewBox="0 0 119 113" fill="none" xmlns="http://www.w3.org/2000/svg">
<path d="M79.7544 44.4823C71.3524 44.4823 62.7999 44.1429 54.7995 41.9268C46.9497 39.7606 39.7423 35.558 33.3179 30.6966C29.1119 27.5322 25.2873 25.0167 19.8266 25.396C14.4833 25.6786 9.37309 27.663 5.25117 31.056C-1.69524 37.1053 -0.651268 48.3055 2.1293 56.1616C6.30517 68.0107 19.0135 76.2561 29.8145 81.6066C42.292 87.8057 56.0041 91.3993 69.7463 93.4757C81.7921 95.2924 97.2709 96.6201 107.711 88.7939C117.297 81.6066 119.927 65.1957 117.578 54.1152C117.009 50.8389 115.256 47.882 112.649 45.7999C105.914 40.9086 95.8656 44.1728 88.2968 44.3425C85.4862 44.4024 82.6253 44.4623 79.7544 44.4823Z" fill="#F2F2F2"/>
<path d="M59.1963 112.891C79.548 112.891 96.0463 111.868 96.0463 110.605C96.0463 109.343 79.548 108.319 59.1963 108.319C38.8445 108.319 22.3462 109.343 22.3462 110.605C22.3462 111.868 38.8445 112.891 59.1963 112.891Z" fill="#F2F2F2"/>
<path d="M105.181 13.3473C105.724 13.3473 106.165 12.9093 106.165 12.369C106.165 11.8288 105.724 11.3908 105.181 11.3908C104.638 11.3908 104.197 11.8288 104.197 12.369C104.197 12.9093 104.638 13.3473 105.181 13.3473Z" fill="#CFCFCF"/>
<path d="M39.7423 5.15179C40.2856 5.15179 40.726 4.71381 40.726 4.17352C40.726 3.63324 40.2856 3.19525 39.7423 3.19525C39.199 3.19525 38.7585 3.63324 38.7585 4.17352C38.7585 4.71381 39.199 5.15179 39.7423 5.15179Z" fill="#CFCFCF"/>
<path d="M51.6376 98.2971C52.1809 98.2971 52.6213 97.8592 52.6213 97.3189C52.6213 96.7786 52.1809 96.3406 51.6376 96.3406C51.0942 96.3406 50.6538 96.7786 50.6538 97.3189C50.6538 97.8592 51.0942 98.2971 51.6376 98.2971Z" fill="#CFCFCF"/>
<path d="M77.8972 0.5V4.79241" stroke="#BABABA" stroke-linecap="round" stroke-linejoin="round"/>
<path d="M75.739 2.64621H80.0554" stroke="#BABABA" stroke-linecap="round" stroke-linejoin="round"/>
<path d="M7.56982 18.5681V22.8605" stroke="#BABABA" stroke-linecap="round" stroke-linejoin="round"/>
<path d="M5.40161 20.7143H9.72806" stroke="#BABABA" stroke-linecap="round" stroke-linejoin="round"/>
<path d="M10.8223 78.3724V82.6748" stroke="#BABABA" stroke-linecap="round" stroke-linejoin="round"/>
<path d="M8.65405 80.5186H12.9805" stroke="#BABABA" stroke-linecap="round" stroke-linejoin="round"/>
<path d="M100.011 34.3602V38.6526" stroke="#BABABA" stroke-linecap="round" stroke-linejoin="round"/>
<path d="M97.853 36.5064H102.169" stroke="#BABABA" stroke-linecap="round" stroke-linejoin="round"/>
<path d="M69.9264 9.31692L19.5419 15.8963C16.2762 16.3227 13.9765 19.301 14.4054 22.5485L22.085 80.7072C22.5139 83.9547 25.5088 86.2417 28.7745 85.8152L79.159 79.2358C82.4246 78.8094 84.7243 75.8311 84.2955 72.5836L76.6158 14.4249C76.187 11.1774 73.192 8.89048 69.9264 9.31692Z" fill="#D2D2D2"/>
<path d="M84.6027 17.8493H33.7093C30.4106 17.8493 27.7366 20.5085 27.7366 23.7888V82.535C27.7366 85.8153 30.4106 88.4745 33.7093 88.4745H84.6027C87.9014 88.4745 90.5754 85.8153 90.5754 82.535V23.7888C90.5754 20.5085 87.9014 17.8493 84.6027 17.8493Z" fill="white" stroke="#BABABA" stroke-linecap="round" stroke-linejoin="round"/>
<path d="M35.3354 64.3272L45.5141 47.8264C45.6143 47.5853 45.7841 47.3792 46.0021 47.2342C46.2201 47.0892 46.4765 47.0118 46.7388 47.0118C47.0011 47.0118 47.2575 47.0892 47.4755 47.2342C47.6935 47.3792 47.8633 47.5853 47.9634 47.8264L53.7354 57.1798C53.8334 57.4217 54.0019 57.6289 54.2193 57.7748C54.4366 57.9207 54.6928 57.9986 54.955 57.9986C55.2172 57.9986 55.4735 57.9207 55.6908 57.7748C55.9081 57.6289 56.0766 57.4217 56.1747 57.1798L66.0522 41.2081C66.1502 40.9662 66.3187 40.759 66.5361 40.6131C66.7534 40.4672 67.0096 40.3893 67.2718 40.3893C67.5341 40.3893 67.7903 40.4672 68.0076 40.6131C68.2249 40.759 68.3934 40.9662 68.4915 41.2081L82.9866 64.6965L35.3354 64.3272Z" fill="white" stroke="#BABABA" stroke-linecap="round" stroke-linejoin="round"/>
<path d="M55.6326 45.6103C57.4011 45.6103 58.8348 44.1846 58.8348 42.4259C58.8348 40.6672 57.4011 39.2415 55.6326 39.2415C53.8641 39.2415 52.4304 40.6672 52.4304 42.4259C52.4304 44.1846 53.8641 45.6103 55.6326 45.6103Z" fill="white" stroke="#BABABA" stroke-linecap="round" stroke-linejoin="round"/>
<path d="M79.7544 44.4823C71.3524 44.4823 62.7999 44.1429 54.7995 41.9268C46.9497 39.7606 39.7423 35.558 33.3179 30.6966C29.1119 27.5322 25.2873 25.0167 19.8266 25.396C14.4833 25.6786 9.37309 27.663 5.25117 31.056C-1.69524 37.1053 -0.651268 48.3055 2.1293 56.1616C6.30517 68.0107 19.0135 76.2561 29.8145 81.6066C42.292 87.8057 56.0041 91.3993 69.7463 93.4757C81.7921 95.2924 97.2709 96.6201 107.711 88.7939C117.297 81.6066 119.927 65.1957 117.578 54.1152C117.009 50.8389 115.256 47.882 112.649 45.7999C105.914 40.9086 95.8656 44.1728 88.2968 44.3425C85.4862 44.4024 82.6253 44.4623 79.7544 44.4823Z" fill="#F2F2F2"/>
<path d="M39.7423 5.15179C40.2856 5.15179 40.726 4.71381 40.726 4.17352C40.726 3.63324 40.2856 3.19525 39.7423 3.19525C39.199 3.19525 38.7585 3.63324 38.7585 4.17352C38.7585 4.71381 39.199 5.15179 39.7423 5.15179Z" fill="#CFCFCF"/>
<path d="M51.6376 98.2971C52.1809 98.2971 52.6213 97.8592 52.6213 97.3189C52.6213 96.7786 52.1809 96.3406 51.6376 96.3406C51.0942 96.3406 50.6538 96.7786 50.6538 97.3189C50.6538 97.8592 51.0942 98.2971 51.6376 98.2971Z" fill="#CFCFCF"/>
<path d="M77.8972 0.5V4.79241" stroke="#BABABA" stroke-linecap="round" stroke-linejoin="round"/>
<path d="M75.739 2.64621H80.0554" stroke="#BABABA" stroke-linecap="round" stroke-linejoin="round"/>
<path d="M7.56982 18.5681V22.8605" stroke="#BABABA" stroke-linecap="round" stroke-linejoin="round"/>
<path d="M5.40161 20.7143H9.72806" stroke="#BABABA" stroke-linecap="round" stroke-linejoin="round"/>
<path d="M10.8223 78.3724V82.6748" stroke="#BABABA" stroke-linecap="round" stroke-linejoin="round"/>
<path d="M8.65405 80.5186H12.9805" stroke="#BABABA" stroke-linecap="round" stroke-linejoin="round"/>
<path d="M69.9264 9.31692L19.5419 15.8963C16.2762 16.3227 13.9765 19.301 14.4054 22.5485L22.085 80.7072C22.5139 83.9547 25.5088 86.2417 28.7745 85.8152L79.159 79.2358C82.4246 78.8094 84.7243 75.8311 84.2955 72.5836L76.6158 14.4249C76.187 11.1774 73.192 8.89048 69.9264 9.31692Z" fill="#D2D2D2"/>
<path d="M84.6027 17.8493H33.7093C30.4106 17.8493 27.7366 20.5085 27.7366 23.7888V82.535C27.7366 85.8153 30.4106 88.4745 33.7093 88.4745H84.6027C87.9014 88.4745 90.5754 85.8153 90.5754 82.535V23.7888C90.5754 20.5085 87.9014 17.8493 84.6027 17.8493Z" fill="white" stroke="#BABABA" stroke-linecap="round" stroke-linejoin="round"/>
<path d="M35.3354 64.3272L45.5141 47.8264C45.6143 47.5853 45.7841 47.3792 46.0021 47.2342C46.2201 47.0892 46.4765 47.0118 46.7388 47.0118C47.0011 47.0118 47.2575 47.0892 47.4755 47.2342C47.6935 47.3792 47.8633 47.5853 47.9634 47.8264L53.7354 57.1798C53.8334 57.4217 54.0019 57.6289 54.2193 57.7748C54.4366 57.9207 54.6928 57.9986 54.955 57.9986C55.2172 57.9986 55.4735 57.9207 55.6908 57.7748C55.9081 57.6289 56.0766 57.4217 56.1747 57.1798L66.0522 41.2081C66.1502 40.9662 66.3187 40.759 66.5361 40.6131C66.7534 40.4672 67.0096 40.3893 67.2718 40.3893C67.5341 40.3893 67.7903 40.4672 68.0076 40.6131C68.2249 40.759 68.3934 40.9662 68.4915 41.2081L82.9866 64.6965L35.3354 64.3272Z" fill="white" stroke="#BABABA" stroke-linecap="round" stroke-linejoin="round"/>
<path d="M55.6326 45.6103C57.4011 45.6103 58.8348 44.1846 58.8348 42.4259C58.8348 40.6672 57.4011 39.2415 55.6326 39.2415C53.8641 39.2415 52.4304 40.6672 52.4304 42.4259C52.4304 44.1846 53.8641 45.6103 55.6326 45.6103Z" fill="white" stroke="#BABABA" stroke-linecap="round" stroke-linejoin="round"/>
</svg>
