<svg width="938" height="906" viewBox="0 0 938 906" fill="none" xmlns="http://www.w3.org/2000/svg">
<mask id="mask0_1001_21" style="mask-type:luminance" maskUnits="userSpaceOnUse" x="0" y="0" width="938" height="906">
<path d="M937.777 0H0V905.44H937.777V0Z" fill="white"/>
</mask>
<g mask="url(#mask0_1001_21)">
<path d="M502.886 871.754C743.07 871.754 937.777 676.606 937.777 435.877C937.777 195.148 743.07 0 502.886 0C262.702 0 67.996 195.149 67.996 435.877C67.996 676.605 262.704 871.754 502.886 871.754Z" fill="#F2F2F2"/>
<path d="M615.364 751.825C612.9 762.287 607.703 771.906 600.303 779.702C592.904 787.497 583.568 793.188 573.249 796.194L206.457 903.008C198.8 905.231 190.78 905.923 182.855 905.044C174.931 904.164 167.258 901.731 160.274 897.883C153.291 894.035 147.135 888.848 142.159 882.619C137.182 876.389 133.483 869.24 131.272 861.579L2.42701 417.089C-2.07019 401.616 -0.244181 384.991 7.5042 370.863C15.2526 356.735 28.2902 346.259 43.755 341.734L273.155 274.934L410.549 234.926C418.206 232.702 426.226 232.01 434.151 232.889C442.076 233.768 449.75 236.201 456.733 240.049C463.716 243.896 469.873 249.084 474.849 255.313C479.826 261.543 483.525 268.693 485.735 276.354L614.579 720.84C617.521 730.926 617.792 741.603 615.364 751.825Z" fill="#E6E6E6"/>
<path d="M615.364 751.825L307.648 734.14C291.565 733.199 276.514 725.908 265.806 713.871C255.098 701.834 249.61 686.036 250.548 669.953L273.148 274.939L410.542 234.931C418.199 232.707 426.219 232.015 434.144 232.894C442.069 233.773 449.742 236.206 456.726 240.054C463.709 243.902 469.865 249.089 474.842 255.319C479.818 261.548 483.518 268.698 485.728 276.359L614.576 720.84C617.519 730.926 617.791 741.603 615.364 751.825Z" fill="#B2B2B2"/>
<path d="M693.249 143.328H311.287C303.311 143.337 295.414 144.916 288.048 147.977C280.683 151.037 273.992 155.519 268.358 161.165C262.724 166.812 258.258 173.512 255.214 180.885C252.17 188.258 250.608 196.158 250.617 204.134V667.003C250.608 674.979 252.17 682.879 255.214 690.251C258.258 697.623 262.724 704.324 268.357 709.97C273.991 715.616 280.681 720.098 288.047 723.158C295.412 726.219 303.308 727.799 311.284 727.808H693.249C701.225 727.799 709.121 726.219 716.487 723.159C723.852 720.098 730.543 715.617 736.176 709.97C741.81 704.324 746.276 697.624 749.32 690.251C752.364 682.879 753.926 674.979 753.917 667.003V204.134C753.926 196.158 752.364 188.258 749.32 180.886C746.276 173.513 741.81 166.812 736.177 161.166C730.543 155.52 723.852 151.038 716.487 147.977C709.121 144.917 701.225 143.337 693.249 143.328Z" fill="white"/>
<path d="M629.336 555.733L633.106 560.233C632.612 560.743 632.106 561.252 631.595 561.76C628.228 565.137 624.681 568.39 620.954 571.521C617.245 574.628 613.435 577.57 609.525 580.349C608.64 580.956 607.756 581.571 606.871 582.174C606.571 582.374 606.271 582.574 605.971 582.774L602.342 578.436L600.27 575.96L598.2 573.491C599.087 572.891 599.972 572.276 600.856 571.666C604.769 568.894 608.578 565.951 612.285 562.838C616.011 559.711 619.558 556.458 622.926 553.079C623.7 552.314 624.448 551.545 625.185 550.769L627.271 553.257L629.336 555.733Z" fill="#E6E6E6"/>
<path d="M699.929 640.042L695.64 643.652L672.94 662.752L658.961 646.075L656.905 643.61L654.845 641.141L634.805 617.205C635.096 616.999 635.387 616.794 635.678 616.584C636.551 615.97 637.424 615.337 638.29 614.711C642.141 611.882 645.925 608.91 649.643 605.795C653.352 602.668 656.929 599.443 660.372 596.122C660.887 595.632 661.399 595.134 661.908 594.628L681.848 618.447L683.897 620.909L685.964 623.362L696.333 635.745L699.929 640.042Z" fill="#E6E6E6"/>
<path d="M771.826 817.092L647.078 668.092C644.964 665.567 643.937 662.307 644.224 659.026C644.511 655.745 646.087 652.712 648.607 650.592L692.207 613.929C693.453 612.88 694.893 612.088 696.445 611.598C697.998 611.107 699.632 610.928 701.253 611.07C702.875 611.212 704.453 611.673 705.896 612.426C707.34 613.18 708.62 614.211 709.664 615.46L834.407 764.464C839.354 770.376 841.754 778.009 841.083 785.688C840.412 793.368 836.724 800.468 830.827 805.433L812.695 820.686C809.778 823.14 806.406 824.995 802.771 826.143C799.136 827.291 795.31 827.711 791.512 827.378C787.715 827.044 784.021 825.965 780.641 824.201C777.262 822.437 774.264 820.024 771.819 817.099L771.826 817.092Z" fill="#B2B2B2"/>
<path d="M666.686 600.339C666.178 600.847 665.663 601.339 665.15 601.833C661.701 605.152 658.125 608.377 654.421 611.506C650.707 614.615 646.923 617.587 643.068 620.422C642.202 621.048 641.329 621.681 640.456 622.295C640.165 622.508 639.874 622.711 639.583 622.916L629.071 610.366L627.004 607.895L624.93 605.421L605.969 582.773C606.269 582.581 606.569 582.373 606.869 582.173C607.756 581.573 608.641 580.956 609.525 580.348C613.438 577.574 617.247 574.631 620.954 571.52C624.68 568.393 628.227 565.139 631.595 561.759C632.108 561.251 632.609 560.743 633.106 560.232L651.938 582.713L653.998 585.182L656.079 587.658L666.686 600.339Z" fill="#B2B2B2"/>
<path d="M667.132 297.403C591.779 207.391 457.913 195.658 368.108 271.182C278.303 346.706 266.592 480.875 341.952 570.882C375.762 611.321 423.429 637.709 475.647 644.896C527.866 652.082 580.889 639.551 624.366 609.749C625.253 609.149 626.138 608.534 627.011 607.906C627.884 607.278 628.757 606.659 629.616 606.033C633.473 603.204 637.26 600.232 640.976 597.117C644.685 593.99 648.259 590.767 651.698 587.45C652.472 586.711 653.241 585.972 653.998 585.198C654.772 584.447 655.516 583.683 656.264 582.914C731.852 505.665 737.964 382.014 667.122 297.414L667.132 297.403ZM396.789 305.436C467.603 245.892 573.542 255.186 632.954 326.148C687.832 391.695 684.1 487.302 627.413 548.431C626.688 549.212 625.953 549.999 625.191 550.769C624.454 551.545 623.706 552.314 622.937 553.079C619.569 556.454 616.022 559.707 612.296 562.838C608.589 565.954 604.78 568.897 600.869 571.668C599.982 572.283 599.097 572.892 598.213 573.497C597.313 574.097 596.423 574.689 595.527 575.278C561.216 597.489 519.964 606.379 479.55 600.271C439.136 594.163 402.353 573.48 376.138 542.121C316.725 471.164 325.988 364.978 396.79 305.432L396.789 305.436Z" fill="#E6E6E6"/>
<path d="M635.398 324.083C621.002 306.864 603.349 292.656 583.451 282.273C563.553 271.89 541.802 265.537 519.443 263.577C497.085 261.617 474.56 264.089 453.159 270.851C431.758 277.614 411.902 288.534 394.73 302.985C322.45 363.76 313.03 471.764 373.669 544.199C400.43 576.206 437.994 597.296 479.254 603.48C520.513 609.664 562.609 600.513 597.578 577.758C598.488 577.169 599.366 576.568 600.264 575.966C601.162 575.364 602.033 574.766 602.906 574.123C606.807 571.374 610.621 568.435 614.346 565.306C618.071 562.177 621.623 558.928 625.001 555.559C625.761 554.797 626.516 554.028 627.267 553.259C628.015 552.478 628.752 551.702 629.489 550.919C657.925 520.314 674.215 480.384 675.303 438.622C676.391 396.86 662.202 356.136 635.398 324.092V324.083ZM627.406 548.431C626.681 549.212 625.944 549.999 625.184 550.769C624.447 551.545 623.696 552.315 622.93 553.079C619.562 556.454 616.015 559.707 612.289 562.838C608.58 565.954 604.77 568.897 600.86 571.668C599.975 572.28 599.091 572.895 598.204 573.497C597.317 574.099 596.416 574.689 595.518 575.278C561.207 597.488 519.955 606.378 479.541 600.27C439.128 594.162 402.345 573.479 376.13 542.121C316.72 471.164 325.98 364.978 396.782 305.432C467.584 245.886 573.537 255.18 632.947 326.142C687.83 391.692 684.093 487.292 627.406 548.424V548.431Z" fill="#E6E6E6"/>
<path d="M627.405 548.431C626.682 549.212 625.945 549.999 625.183 550.769C624.446 551.545 623.698 552.314 622.929 553.079C619.561 556.454 616.014 559.707 612.288 562.838C608.581 565.954 604.772 568.897 600.861 571.668C599.974 572.28 599.089 572.895 598.205 573.497C597.321 574.099 596.415 574.689 595.519 575.278C561.208 597.489 519.955 606.379 479.541 600.271C439.127 594.163 402.344 573.48 376.129 542.121C316.716 471.164 325.979 364.978 396.781 305.432C467.583 245.886 573.533 255.18 632.946 326.142C687.824 391.689 684.092 487.296 627.405 548.425V548.431Z" fill="white"/>
<path d="M801.534 763.279C800.729 763.28 799.933 763.107 799.202 762.772C798.47 762.436 797.82 761.946 797.295 761.336L695.687 643.721C694.711 642.596 694.222 641.13 694.327 639.644C694.433 638.159 695.124 636.776 696.249 635.8C697.373 634.825 698.84 634.336 700.325 634.441C701.81 634.546 703.193 635.237 704.169 636.362L805.775 753.977C806.479 754.79 806.935 755.789 807.089 756.854C807.242 757.919 807.087 759.006 806.641 759.985C806.195 760.964 805.478 761.795 804.574 762.379C803.67 762.962 802.617 763.274 801.541 763.277L801.534 763.279Z" fill="white"/>
<path d="M350.835 317.467C350.066 317.466 349.312 317.248 348.661 316.84C348.009 316.431 347.485 315.847 347.149 315.156C346.812 314.464 346.677 313.691 346.758 312.927C346.84 312.162 347.134 311.435 347.608 310.829C374.192 276.83 411.097 252.382 452.772 241.162C494.447 229.942 538.638 232.558 578.698 248.615C579.71 249.018 580.521 249.807 580.951 250.808C581.382 251.808 581.397 252.939 580.994 253.951C580.591 254.963 579.802 255.774 578.802 256.204C577.801 256.635 576.67 256.65 575.658 256.247C497.229 224.789 406.11 249.315 354.07 315.897C353.687 316.389 353.197 316.787 352.637 317.061C352.077 317.334 351.462 317.476 350.839 317.475L350.835 317.467Z" fill="white"/>
<path d="M323.242 365.551C322.72 365.55 322.203 365.448 321.72 365.251C320.711 364.843 319.904 364.051 319.476 363.05C319.049 362.049 319.034 360.92 319.436 359.908C323.695 349.243 328.854 338.96 334.856 329.169C335.139 328.71 335.509 328.312 335.946 327.996C336.383 327.681 336.878 327.455 337.402 327.33C337.926 327.206 338.47 327.186 339.002 327.272C339.534 327.358 340.044 327.548 340.503 327.831C340.961 328.113 341.36 328.484 341.675 328.921C341.991 329.358 342.217 329.852 342.341 330.377C342.465 330.901 342.485 331.445 342.399 331.977C342.314 332.509 342.124 333.018 341.841 333.477C336.08 342.866 331.132 352.73 327.051 362.962C326.747 363.724 326.221 364.377 325.542 364.837C324.863 365.297 324.062 365.542 323.242 365.542V365.551Z" fill="white"/>
<path d="M527.266 470.477C520.63 475.062 513.816 473.265 506.824 465.086L491.069 445.157C487.782 441.043 486.356 437.066 486.791 433.225C487.226 429.384 489.155 425.484 492.579 421.525C498.199 415.134 501.558 408.762 502.657 402.409C503.756 396.056 502.177 389.788 497.922 383.603C493.242 376.796 487.73 372.672 481.386 371.229C475.042 369.786 468.552 371.36 461.917 375.95C453.578 381.708 449.662 389.092 450.167 398.101C450.211 404.462 449.501 409.06 448.037 411.895C446.573 414.73 443.699 417.172 439.415 419.222C434.56 421.437 430.03 421.886 425.826 420.569C421.622 419.252 419.086 415.812 418.218 410.251C416.575 399.406 418.152 388.317 422.754 378.36C427.403 368.072 434.977 359.302 445.475 352.051C455.044 345.442 464.744 341.422 474.575 339.989C484.118 338.522 493.882 339.866 502.675 343.856C511.577 347.863 519.326 354.661 525.921 364.249C533.481 375.239 536.242 386.455 534.204 397.898C532.166 409.341 526.549 420.294 517.354 430.757L529.035 449.732C534.329 459.082 533.735 465.998 527.252 470.479L527.266 470.477ZM561.345 520.53C559.064 522.148 556.48 523.287 553.748 523.88C551.015 524.473 548.191 524.508 545.445 523.981C542.688 523.56 540.048 522.569 537.695 521.071C535.342 519.573 533.327 517.601 531.778 515.281C530.124 512.974 528.967 510.349 528.379 507.572C527.792 504.795 527.788 501.926 528.366 499.147C528.852 496.39 529.889 493.76 531.414 491.413C532.939 489.065 534.922 487.049 537.243 485.485C539.55 483.828 542.169 482.653 544.941 482.033C547.714 481.413 550.583 481.359 553.377 481.875C556.176 482.323 558.851 483.348 561.232 484.886C563.613 486.424 565.647 488.441 567.206 490.809C568.82 493.089 569.942 495.68 570.502 498.418C571.061 501.155 571.046 503.978 570.456 506.709C569.944 509.506 568.874 512.172 567.31 514.547C565.745 516.922 563.719 518.958 561.351 520.533L561.345 520.53Z" fill="#F2F2F2"/>
</g>
</svg>
